# xmcd CD database file
#
# Track frame offsets:
#	150
#	13423
#	29355
#	43208
#	58140
#	72048
#	86170
#	101018
#	116048
#	129853
#	141368
#	155650
#	169875
#	184805
#	207078
#	219590
#	232930
#	246305
#	260770
#	275668
#	290760
#
# Disc length: 4068 seconds
#
# Revision: 0
# Processed by: cddbd v1.5.1PL0 Copyright (c) Steve Scherf et al.
# Submitted via: CDex 1.51
#
DISCID=4e0fe215
DTITLE=Tommy Dorsey - The Great Tommy Dorsey
DYEAR=1945
DGENRE=Jazz
TTITLE0=Music Maestro Please
TTITLE1=Stardust
TTITLE2=Who
TTITLE3=Marie
TTITLE4=Song Of India
TTITLE5=Hawaiian
TTITLE6=East Of The Sun
TTITLE7=Night In Sudan
TTITLE8=That`s A Plenty
TTITLE9=Night And Day
TTITLE10=Smoke Gets In Your Eyes
TTITLE11=Tea For Two
TTITLE12=Beale Street Blues
TTITLE13=Lonesome Road
TTITLE14=Turn Off The Moon
TTITLE15=After You`ve Gone
TTITLE16=The Lady Is A Tramp
TTITLE17=The Call Of The Canyon
TTITLE18=(What Can I Say) After I Say I`m Sorry
TTITLE19=Polka Dots And Moonbeams
TTITLE20=Too Romantic
EXTD=YEAR: 1945
EXTT0=
EXTT1=
EXTT2=
EXTT3=
EXTT4=
EXTT5=
EXTT6=
EXTT7=
EXTT8=
EXTT9=
EXTT10=
EXTT11=
EXTT12=
EXTT13=
EXTT14=
EXTT15=
EXTT16=
EXTT17=
EXTT18=
EXTT19=
EXTT20=
PLAYORDER=
